<svg width="100" height="100" version="1.1" xmlns="http://www.w3.org/2000/svg"><path fill="rgb(241,86,67)" stroke="rgb(241,86,67)" stroke-width="1" opacity="1" d="M 0 0 L 99.5 0 L 100 0.5 L 100 29 Q 93.8 28.1 91 30 Q 92.2 33.7 87 32 Q 85.2 29.6 86 23.5 L 84 20 Q 81 21 82 18 L 77.5 18 L 76.5 17 L 62.5 16 L 61.5 17 L 36.5 17 L 34.5 17 Q 28.4 17.8 26 16 L 26 18 Q 23.3 16.9 24 19.5 L 21 21 L 20.5 35 L 20 29 L 18 29 Q 19.3 33.1 16 32 L 15.5 30 L 0 30 L 0 0 Z "></path><path fill="rgb(241,86,67)" stroke="rgb(241,86,67)" stroke-width="1" opacity="1" d="M 61.5 37 L 64 37.5 L 61.5 38 L 61.5 37 Z "></path><path fill="rgb(241,86,67)" stroke="rgb(241,86,67)" stroke-width="1" opacity="1" d="M 69 37 L 75 37 L 75 46.5 L 74 46.5 L 74 38 L 70 38 L 69.5 47 L 69 37 Z "></path><path fill="rgb(241,86,67)" stroke="rgb(241,86,67)" stroke-width="1" opacity="1" d="M 45.5 43 L 47 44.5 L 46.5 47 Q 43 47.8 45.5 43 Z "></path><path fill="rgb(158,147,17)" stroke="rgb(158,147,17)" stroke-width="1" opacity="1" d="M 27.5 21 L 50 21.5 L 43 22.5 L 47 23.5 L 45 24 L 44 30 Q 49.2 28.3 48 32 L 27.5 32 Q 26.5 32 27 27.5 L 26 25.5 L 26 23.5 L 27.5 21 Z "></path><path fill="rgb(158,147,17)" stroke="rgb(158,147,17)" stroke-width="1" opacity="1" d="M 60.5 21 L 64 21.5 L 60.5 22 L 60.5 21 Z "></path><path fill="rgb(158,147,17)" stroke="rgb(158,147,17)" stroke-width="1" opacity="1" d="M 70.5 21 L 78 21.5 L 70.5 22 L 70.5 21 Z "></path><path fill="rgb(158,147,17)" stroke="rgb(158,147,17)" stroke-width="1" opacity="1" d="M 53.5 22 L 54 26 Q 59.6 28.2 58 22.5 L 59 22.5 Q 59.8 26.3 57.5 27 Q 53.8 27.8 53 25.5 L 53.5 22 Z "></path><path fill="rgb(158,147,17)" stroke="rgb(158,147,17)" stroke-width="1" opacity="1" d="M 43.5 47 L 47 47.5 L 43.5 48 L 43.5 47 Z "></path><path fill="rgb(157,16,12)" stroke="rgb(157,16,12)" stroke-width="1" opacity="1" d="M 72.5 40 L 73 45 L 71 44.5 L 72.5 40 Z "></path><path fill="rgb(157,16,12)" stroke="rgb(157,16,12)" stroke-width="1" opacity="1" d="M 71.5 46 L 74 47.5 L 71 48 L 71.5 46 Z "></path><path fill="rgb(157,16,12)" stroke="rgb(157,16,12)" stroke-width="1" opacity="1" d="M 48.5 59 L 56.5 59 L 57 60.5 Q 59.3 61.8 56.5 63 L 52 64 L 52 83.5 L 50.5 85 L 48 83.5 Q 49.8 78.3 44.5 80 Q 42 78.8 43 75 L 39.5 73 L 39 75 Q 35.3 73.7 37 79.5 L 36 83.5 L 37 86 L 40.5 87 L 43.5 86 L 47 87 L 49.5 92 Q 53.3 90.8 52 94.5 Q 51.3 96.8 47.5 96 L 43.5 95 L 41 96 Q 42.7 101.2 39 100 L 40 92.5 L 37.5 90 Q 33 91 32 88.5 L 33 85.5 L 33 83.5 L 32 77.5 Q 34.3 76.3 33 71.5 L 34.5 70 Q 37.8 71.1 37 68.5 L 39.5 64 Q 44.3 65.7 43 61.5 L 48.5 59 Z "></path><path fill="rgb(157,16,12)" stroke="rgb(157,16,12)" stroke-width="1" opacity="1" d="M 71 97 L 80 97 L 80 100 L 71 100 L 71 97 Z "></path><path fill="rgb(196,175,25)" stroke="rgb(196,175,25)" stroke-width="1" opacity="1" d="M 50.5 21 L 53 22.5 Q 52.3 26.3 54.5 27 Q 58.3 27.8 59 25.5 L 59 22 L 64 22 L 64 27 L 70 27 L 70 22 L 77.5 22 L 80 21 L 80 31.5 L 78.5 32 L 74.5 33 L 73.5 32 L 48 32 Q 49.2 28.3 44 30 L 44 27.5 L 45 24 L 47 23.5 L 43 22.5 L 50.5 21 Z "></path><path fill="rgb(196,175,25)" stroke="rgb(196,175,25)" stroke-width="1" opacity="1" d="M 44.5 44 L 45 47 Q 42.3 48.1 43 45.5 L 44.5 44 Z "></path><path fill="rgb(237,70,69)" stroke="rgb(237,70,69)" stroke-width="1" opacity="1" d="M 26 16 L 30 17.5 L 25 20.5 L 23 23.5 L 23 31.5 L 22 32.5 L 23 34.5 L 22 35.5 L 22 49.5 L 20 59 L 18 59 Q 19.1 56.3 16.5 57 L 12.5 56 L 11.5 57 L 0 57 L 0 30 L 16 30 Q 15 33 18 32 Q 16.7 27.9 20 29 L 20.5 35 L 21 21 L 24 19.5 Q 23.3 16.9 26 18 L 26 16 Z "></path><path fill="rgb(237,70,69)" stroke="rgb(237,70,69)" stroke-width="1" opacity="1" d="M 35.5 16 L 39 17.5 L 34.5 18 L 35.5 16 Z "></path><path fill="rgb(237,70,69)" stroke="rgb(237,70,69)" stroke-width="1" opacity="1" d="M 62.5 16 L 66 16.5 L 60.5 18 L 60.5 17 L 62.5 16 Z "></path><path fill="rgb(237,70,69)" stroke="rgb(237,70,69)" stroke-width="1" opacity="1" d="M 78.5 18 Q 83.3 16.7 82 20 Q 77.8 20 78.5 18 Z "></path><path fill="rgb(237,70,69)" stroke="rgb(237,70,69)" stroke-width="1" opacity="1" d="M 83.5 20 L 86 23.5 Q 85.2 29.6 87 32 L 91 32 Q 89.9 29.3 92.5 30 L 93.5 29 L 100 29 L 100 54.5 L 96.5 55 L 92.5 57 L 91 56.5 Q 92.3 60.3 88.5 59 L 86 58.5 L 87 54.5 L 85 51.5 L 85 37.5 L 83 27.5 L 84 22.5 L 83.5 20 Z "></path><path fill="rgb(12,10,10)" stroke="rgb(12,10,10)" stroke-width="1" opacity="1" d="M 29.5 32 L 40.5 32 L 41 33.5 L 41 35.5 L 41 48.5 L 40 49.5 L 41.5 50 L 43 49.5 L 42.5 52 Q 37.5 53 36.5 50 L 31.5 50 L 29.5 51 L 28 49.5 L 28 38.5 L 27 33 L 29.5 32 Z "></path><path fill="rgb(12,10,10)" stroke="rgb(12,10,10)" stroke-width="1" opacity="1" d="M 54.5 39 L 55 41.5 L 54 41.5 L 54.5 39 Z "></path><path fill="rgb(12,10,10)" stroke="rgb(12,10,10)" stroke-width="1" opacity="1" d="M 54.5 47 L 59.5 49 L 75 49 L 75 55 L 77.5 55 L 79 57.5 L 78 57.5 Q 78.9 54.5 74.5 56 L 72.5 57 L 70.5 56 L 69.5 58 L 71 58.5 L 65.5 59 L 64.5 58 L 50 56.5 Q 51.4 53.8 56 55 L 57 51 L 44 48.5 L 47.5 48 L 52.5 49 L 54.5 47 Z "></path><path fill="rgb(12,10,10)" stroke="rgb(12,10,10)" stroke-width="1" opacity="1" d="M 77 49 Q 80.3 47.9 79 52 Q 75.7 53.1 77 49 Z "></path><path fill="rgb(12,10,10)" stroke="rgb(12,10,10)" stroke-width="1" opacity="1" d="M 45.5 51 L 52 51.5 L 45.5 52 L 45.5 51 Z "></path><path fill="rgb(12,10,10)" stroke="rgb(12,10,10)" stroke-width="1" opacity="1" d="M 35.5 58 L 42 58.5 L 35.5 59 L 35.5 58 Z "></path><path fill="rgb(12,10,10)" stroke="rgb(12,10,10)" stroke-width="1" opacity="1" d="M 70.5 64 L 74 66.5 L 73.5 68 L 73 66 L 70.5 64 Z "></path><path fill="rgb(12,10,10)" stroke="rgb(12,10,10)" stroke-width="1" opacity="1" d="M 28.5 71 L 31 71.5 L 28.5 72 L 28.5 71 Z "></path><path fill="rgb(12,10,10)" stroke="rgb(12,10,10)" stroke-width="1" opacity="1" d="M 65.5 75 L 69 76 L 68.5 81 L 66.5 76 L 65 76 L 65 81 L 61.5 81 L 59.5 85 L 59 81 L 64 80 Q 63 76.2 65.5 75 Z "></path><path fill="rgb(12,10,10)" stroke="rgb(12,10,10)" stroke-width="1" opacity="1" d="M 68.5 82 L 68 83.5 Q 68.8 85.8 66.5 85 L 68.5 82 Z "></path><path fill="rgb(12,10,10)" stroke="rgb(12,10,10)" stroke-width="1" opacity="1" d="M 56.5 86 Q 59.5 85.1 58 89.5 L 57 89.5 L 56.5 86 Z "></path><path fill="rgb(12,10,10)" stroke="rgb(12,10,10)" stroke-width="1" opacity="1" d="M 29.5 87 Q 32.1 86.2 31 89.5 L 31.5 92 Q 35.5 91.5 36 94.5 L 35 97.5 L 36 100 L 27 100 L 27 95.5 Q 29.5 94 28 88.5 L 29.5 87 Z "></path><path fill="rgb(12,10,10)" stroke="rgb(12,10,10)" stroke-width="1" opacity="1" d="M 76.5 89 L 79 93.5 L 75.5 95 L 73.5 94 L 70 95 L 71.5 92 L 76 91 L 76.5 89 Z "></path><path fill="rgb(12,10,10)" stroke="rgb(12,10,10)" stroke-width="1" opacity="1" d="M 43 97 L 47 97 L 47 98.5 L 47.5 100 Q 41.2 101.9 43 97 Z "></path><path fill="rgb(12,10,10)" stroke="rgb(12,10,10)" stroke-width="1" opacity="1" d="M 60 97 Q 64.5 95.5 63 100 Q 58.5 101.5 60 97 Z "></path><path fill="rgb(236,187,161)" stroke="rgb(236,187,161)" stroke-width="1" opacity="1" d="M 64 32 L 77.5 33 L 80 32 L 80 47.5 L 75 48 L 75 37 L 69 37 L 69 48 L 59 48 L 59 38.5 L 64 38 L 64 32 Z "></path><path fill="rgb(236,187,161)" stroke="rgb(236,187,161)" stroke-width="1" opacity="1" d="M 48 37 L 53 37 L 53 48 L 47.5 48 L 47 46.5 L 46.5 43 L 48 42.5 L 48 37 Z "></path><path fill="rgb(236,187,161)" stroke="rgb(236,187,161)" stroke-width="1" opacity="1" d="M 43 43 L 45 43.5 L 43 44.5 L 43 43 Z "></path><path fill="rgb(141,48,56)" stroke="rgb(141,48,56)" stroke-width="1" opacity="1" d="M 32.5 19 L 39.5 20 L 40.5 19 L 49.5 19 L 54.5 20 L 56.5 19 L 61.5 20 Q 63 17.5 68.5 19 L 71 20.5 L 69.5 26 L 69 21 L 63.5 20 L 57.5 22 L 55.5 21 L 53.5 22 L 52.5 21 L 35.5 21 L 32.5 20 L 30.5 21 L 30.5 20 L 32.5 19 Z "></path><path fill="rgb(141,48,56)" stroke="rgb(141,48,56)" stroke-width="1" opacity="1" d="M 74.5 19 L 78 20.5 L 72.5 21 L 72.5 20 L 74.5 19 Z "></path><path fill="rgb(141,48,56)" stroke="rgb(141,48,56)" stroke-width="1" opacity="1" d="M 25.5 23 L 27 31.5 L 26 32.5 L 26 57.5 L 33 60.5 L 34 64 Q 31.3 62.9 32 65.5 L 26 70.5 L 26 99.5 L 24 100 L 24 75.5 L 25 70.5 Q 29.7 68.2 31 62.5 L 25 57.5 L 24 38.5 L 25 37.5 L 25.5 23 Z "></path><path fill="rgb(141,48,56)" stroke="rgb(141,48,56)" stroke-width="1" opacity="1" d="M 80.5 24 L 82 24.5 L 82 55.5 L 80.5 58 L 80 53.5 L 81 48.5 L 80 47.5 L 80 27.5 L 81 25.5 L 80.5 24 Z "></path><path fill="rgb(141,48,56)" stroke="rgb(141,48,56)" stroke-width="1" opacity="1" d="M 65.5 26 L 68 26.5 L 65.5 27 L 65.5 26 Z "></path><path fill="rgb(141,48,56)" stroke="rgb(141,48,56)" stroke-width="1" opacity="1" d="M 53.5 37 L 54 47.5 L 53 47.5 L 53.5 37 Z "></path><path fill="rgb(141,48,56)" stroke="rgb(141,48,56)" stroke-width="1" opacity="1" d="M 58.5 38 L 59 46.5 L 58 46.5 L 58.5 38 Z "></path><path fill="rgb(141,48,56)" stroke="rgb(141,48,56)" stroke-width="1" opacity="1" d="M 43.5 42 L 48 42.5 L 43.5 43 L 43.5 42 Z "></path><path fill="rgb(141,48,56)" stroke="rgb(141,48,56)" stroke-width="1" opacity="1" d="M 44.5 59 L 48 59.5 L 43.5 61 L 44.5 59 Z "></path><path fill="rgb(141,48,56)" stroke="rgb(141,48,56)" stroke-width="1" opacity="1" d="M 57 59 Q 60.3 57.7 59 62.5 L 58 62.5 L 57 59 Z "></path><path fill="rgb(141,48,56)" stroke="rgb(141,48,56)" stroke-width="1" opacity="1" d="M 76.5 59 L 80 59.5 L 76 61.5 L 76 64.5 Q 80.7 66.8 82 72.5 L 82 100 L 80 100 L 79.5 97 L 71 97 L 70.5 100 L 70 96 L 81 96 L 81 76.5 L 80 75.5 L 80 69 L 77 69 Q 78 66 75 67 L 75 64.5 L 74 60 L 76.5 59 Z "></path><path fill="rgb(141,48,56)" stroke="rgb(141,48,56)" stroke-width="1" opacity="1" d="M 52 64 L 55 64.5 L 54 65.5 L 53.5 85 L 52 69.5 L 52 67.5 L 52 64 Z "></path><path fill="rgb(234,58,71)" stroke="rgb(234,58,71)" stroke-width="1" opacity="1" d="M 84.5 37 L 85 51.5 L 88.5 59 Q 92.3 60.3 91 56.5 L 93.5 56 L 100 55 L 100 76.5 L 97 77 L 97 80 Q 92.9 78.7 94 82 L 91 82 Q 92.7 76.8 89 78 Q 90 81.8 87.5 83 Q 84.8 79.2 86 71.5 L 83.5 67 L 82 67.5 L 83 65.5 L 81 62 Q 84.3 63.3 83 58.5 L 84 57.5 L 84.5 37 Z "></path><path fill="rgb(234,58,71)" stroke="rgb(234,58,71)" stroke-width="1" opacity="1" d="M 21.5 50 Q 21 61 28 64.5 L 21 69.5 L 20 80 L 17 80.5 L 17 95.5 L 16 95.5 L 16 80.5 L 15 77 L 13 77 L 12.5 80 L 5 80 L 5 77 L 0 76.5 L 0 57 L 15.5 56 L 18 57 Q 17 60 20 59 L 21.5 50 Z "></path><path fill="rgb(234,58,71)" stroke="rgb(234,58,71)" stroke-width="1" opacity="1" d="M 87.5 85 L 88 97.5 L 87 97.5 L 87.5 85 Z "></path><path fill="rgb(46,15,15)" stroke="rgb(46,15,15)" stroke-width="1" opacity="1" d="M 65.5 21 L 64.5 23 L 65.5 21 Z "></path><path fill="rgb(46,15,15)" stroke="rgb(46,15,15)" stroke-width="1" opacity="1" d="M 41 32 Q 44 30.8 43 34.5 L 43 36.5 L 44 41.5 L 42 42.5 Q 43 35 41 32 Z "></path><path fill="rgb(46,15,15)" stroke="rgb(46,15,15)" stroke-width="1" opacity="1" d="M 45.5 36 L 46 40.5 L 45 40.5 L 45.5 36 Z "></path><path fill="rgb(46,15,15)" stroke="rgb(46,15,15)" stroke-width="1" opacity="1" d="M 54 37 L 58 37 L 58 47 Q 52 49.3 54 42.5 L 55 39.5 L 54 37 Z "></path><path fill="rgb(46,15,15)" stroke="rgb(46,15,15)" stroke-width="1" opacity="1" d="M 59.5 48 L 77 48.5 L 59.5 49 L 59.5 48 Z "></path><path fill="rgb(46,15,15)" stroke="rgb(46,15,15)" stroke-width="1" opacity="1" d="M 79.5 57 L 78.5 59 Q 72.4 58.3 70 60 L 69.5 64 Q 67 62.8 68 59 L 79.5 57 Z "></path><path fill="rgb(46,15,15)" stroke="rgb(46,15,15)" stroke-width="1" opacity="1" d="M 27.5 58 L 41.5 59 L 42.5 58 L 58.5 58 L 58.5 59 L 42 59 L 42 64 L 37 64 L 37 67.5 Q 35.8 70 32 69 L 31.5 90 L 31 87 L 28 88.5 L 27.5 95 L 27 70 L 32 69 L 32 64 Q 37.6 66.2 36 60.5 Q 34.3 57.3 27.5 59 L 27.5 58 Z M 35 65 L 33 67 Q 32 69 35 68 L 35 65 Z M 29 71 L 29 72 L 31 72 L 29 71 Z "></path><path fill="rgb(46,15,15)" stroke="rgb(46,15,15)" stroke-width="1" opacity="1" d="M 71.5 64 Q 74.8 62.9 74 65.5 L 75 67.5 L 74 67.5 L 72.5 65 L 71.5 64 Z "></path><path fill="rgb(46,15,15)" stroke="rgb(46,15,15)" stroke-width="1" opacity="1" d="M 75.5 69 L 80 70 L 80 95.5 L 76.5 96 L 76.5 95 L 79 93.5 L 78.5 85 L 77.5 91 L 77 82.5 L 79 82.5 L 79 76.5 Q 75.8 77.5 77 71.5 L 75.5 69 Z "></path><path fill="rgb(46,15,15)" stroke="rgb(46,15,15)" stroke-width="1" opacity="1" d="M 38.5 75 L 42 75.5 L 38.5 76 L 38.5 75 Z "></path><path fill="rgb(46,15,15)" stroke="rgb(46,15,15)" stroke-width="1" opacity="1" d="M 37.5 77 L 38 84.5 L 37 84.5 L 37.5 77 Z "></path><path fill="rgb(46,15,15)" stroke="rgb(46,15,15)" stroke-width="1" opacity="1" d="M 42.5 77 L 43 79.5 L 42 79.5 L 42.5 77 Z "></path><path fill="rgb(46,15,15)" stroke="rgb(46,15,15)" stroke-width="1" opacity="1" d="M 39.5 85 L 53 85.5 L 39.5 86 L 39.5 85 Z "></path><path fill="rgb(46,15,15)" stroke="rgb(46,15,15)" stroke-width="1" opacity="1" d="M 48.5 90 L 54 90.5 L 48.5 91 L 48.5 90 Z "></path><path fill="rgb(46,15,15)" stroke="rgb(46,15,15)" stroke-width="1" opacity="1" d="M 31.5 91 Q 36.8 89.8 38 92.5 L 38 99.5 L 36 100 L 35 96.5 L 36 94.5 Q 35.5 91.5 31.5 92 L 31.5 91 Z "></path><path fill="rgb(46,15,15)" stroke="rgb(46,15,15)" stroke-width="1" opacity="1" d="M 42 96 Q 47.4 94.5 49 97.5 L 48.5 100 L 47 97 Q 41.8 94.9 43 99.5 L 42 99.5 L 42 96 Z "></path><path fill="rgb(46,15,15)" stroke="rgb(46,15,15)" stroke-width="1" opacity="1" d="M 52.5 96 L 53 99.5 L 52 99.5 L 52.5 96 Z "></path><path fill="rgb(15,94,139)" stroke="rgb(15,94,139)" stroke-width="1" opacity="1" d="M 55.5 21 L 58 22.5 Q 59.6 28.2 54 26 Q 53 22.2 55.5 21 Z "></path><path fill="rgb(15,94,139)" stroke="rgb(15,94,139)" stroke-width="1" opacity="1" d="M 66.5 21 L 69 24.5 L 65.5 26 L 64 23.5 L 66.5 21 Z "></path><path fill="rgb(15,94,139)" stroke="rgb(15,94,139)" stroke-width="1" opacity="1" d="M 59 59 L 64 59 L 64 64 L 69 64 L 69 69 L 70.5 69 L 72.5 69 L 75 71.5 L 75 86.5 L 74 87.5 L 75 89.5 Q 73.6 92.3 69 91 L 70 96.5 L 69 100 Q 61.9 102.4 64 96 L 58 96 Q 60 102 54 100 L 54 91 L 57.5 91 L 60.5 85 L 69 86 L 69 75 L 64 75 L 64 80 L 59 80 Q 61.5 87.5 54 85 L 54 65.5 L 55.5 64 L 59 62.5 L 59 59 Z "></path><path fill="rgb(192,52,56)" stroke="rgb(192,52,56)" stroke-width="1" opacity="1" d="M 30.5 17 L 38.5 18 L 39.5 17 L 47.5 17 L 49.5 18 L 50.5 17 L 59.5 17 L 63.5 18 Q 65.3 15.3 71.5 17 L 73.5 18 L 76.5 17 Q 78.4 20.6 83 20 L 84 26.5 L 83 28.5 L 84 29.5 L 84 57.5 L 83 60 L 79 62.5 Q 77.5 66.9 80.5 66 L 84 69.5 L 84 100 L 82 99.5 L 82 72.5 Q 80.7 66.8 76 64.5 L 76 61.5 L 80 60 L 82 55.5 L 82 24.5 L 78.5 20 L 74.5 19 L 69.5 20 Q 68 17.5 62.5 19 L 57.5 20 L 55.5 19 L 50.5 20 L 49.5 19 L 40.5 19 L 35.5 20 L 32.5 19 L 28.5 20 L 25 23.5 L 24 45.5 L 25 46.5 L 25 57.5 L 27.5 60 L 31 62.5 Q 29.7 68.2 25 70.5 L 24 75.5 L 24 100 L 22 99.5 L 22 73.5 L 28 63.5 L 22 55.5 L 22 35.5 L 23 33.5 L 23 31.5 L 23 23.5 L 27.5 18 L 30.5 17 Z "></path><path fill="rgb(192,52,56)" stroke="rgb(192,52,56)" stroke-width="1" opacity="1" d="M 72.5 38 L 74 39.5 Q 72.2 45.8 75 47.5 L 73 46.5 Q 73.6 39.8 72.5 38 Z "></path><path fill="rgb(192,52,56)" stroke="rgb(192,52,56)" stroke-width="1" opacity="1" d="M 70.5 46 L 71 48 L 69 47.5 L 70.5 46 Z "></path><path fill="rgb(232,51,70)" stroke="rgb(232,51,70)" stroke-width="1" opacity="1" d="M 71.5 38 Q 74.3 39.3 72 40.5 Q 73.3 45.3 70 44 Q 68.8 39.4 71.5 38 Z "></path><path fill="rgb(232,51,70)" stroke="rgb(232,51,70)" stroke-width="1" opacity="1" d="M 70.5 45 Q 73.8 43.9 73 46.5 L 71.5 46 L 70.5 45 Z "></path><path fill="rgb(232,51,70)" stroke="rgb(232,51,70)" stroke-width="1" opacity="1" d="M 24.5 60 L 27.5 64 L 24.5 60 Z "></path><path fill="rgb(232,51,70)" stroke="rgb(232,51,70)" stroke-width="1" opacity="1" d="M 81.5 60 Q 84.1 59.3 83 62 Q 80.3 60.9 81 63.5 L 84 68.5 L 83 68.5 Q 83.8 66.3 81.5 67 L 79 65.5 L 79 63.5 L 81.5 60 Z "></path><path fill="rgb(232,51,70)" stroke="rgb(232,51,70)" stroke-width="1" opacity="1" d="M 23.5 67 L 25 67.5 L 22 73.5 L 22 100 L 0 100 L 0 77 L 5 77 L 5.5 80 L 13 80 Q 11.7 75.9 15 77 L 16 80.5 L 16.5 96 L 17 80 L 20 80 L 20 71.5 L 23.5 67 Z "></path><path fill="rgb(232,51,70)" stroke="rgb(232,51,70)" stroke-width="1" opacity="1" d="M 84.5 70 L 86 71.5 Q 84.8 79.2 87.5 83 Q 90 81.8 89 78 Q 92.7 76.8 91 82 L 94 82 Q 92.9 78.7 97 80 L 97 77 L 100 77 L 100 100 L 84 100 L 84.5 70 Z M 88 85 L 87 98 L 88 98 L 88 85 Z "></path><path fill="rgb(9,1,2)" stroke="rgb(9,1,2)" stroke-width="1" opacity="1" d="M 41.5 35 L 42 48 L 48.5 50 L 53.5 50 L 55 49.5 L 54.5 51 Q 57.8 49.9 57 52.5 L 56 55 Q 51.4 53.8 50 56.5 L 57 57.5 L 27 58 L 27.5 38 L 28 49.5 L 29.5 51 L 36.5 50 Q 37.5 53 42.5 52 L 41.5 50 L 40 49.5 L 41 48.5 L 41.5 35 Z M 46 51 L 46 52 L 52 52 L 46 51 Z "></path><path fill="rgb(9,1,2)" stroke="rgb(9,1,2)" stroke-width="1" opacity="1" d="M 75 49 L 77 49 Q 75.7 53.1 79 52 L 79.5 49 L 80 56.5 L 78 56.5 L 77.5 58 L 69.5 58 L 70.5 56 L 73.5 57 L 78 55.5 L 75 55 L 75 49 Z "></path><path fill="rgb(9,1,2)" stroke="rgb(9,1,2)" stroke-width="1" opacity="1" d="M 38 76 Q 44 74 42 80 L 46.5 80 Q 49 81.2 48 85 L 38 85 L 38 76 Z "></path><path fill="rgb(9,1,2)" stroke="rgb(9,1,2)" stroke-width="1" opacity="1" d="M 65 76 L 68 77.5 Q 69.3 83.8 65.5 85 L 62.5 84 L 60 85 L 61.5 81 L 65 81 L 65 76 Z "></path><path fill="rgb(9,1,2)" stroke="rgb(9,1,2)" stroke-width="1" opacity="1" d="M 48 86 L 55.5 86 L 57 87.5 L 56.5 90 L 48 90 L 48 86 Z "></path><path fill="rgb(10,28,40)" stroke="rgb(10,28,40)" stroke-width="1" opacity="1" d="M 48.5 48 L 52 48.5 L 48.5 49 L 48.5 48 Z "></path><path fill="rgb(10,28,40)" stroke="rgb(10,28,40)" stroke-width="1" opacity="1" d="M 59.5 58 L 68 59 Q 67 64.6 71.5 66 L 73 66 L 73 68 Q 75.7 66.9 75 69.5 Q 78.3 71 77 76 Q 80.5 74.9 79 82.5 L 77 82.5 Q 77.8 88.6 76 91 L 70 93.5 L 71 95.5 L 69 96 L 69 91 L 73.5 91 L 75 88.5 L 75 86.5 L 75 71.5 L 72.5 69 L 70.5 69 L 69 69 L 69 64 L 64 64 L 64 59 L 59.5 59 L 59.5 58 Z "></path><path fill="rgb(10,28,40)" stroke="rgb(10,28,40)" stroke-width="1" opacity="1" d="M 33.5 66 Q 35.8 65.3 35 67.5 L 33.5 66 Z "></path><path fill="rgb(10,28,40)" stroke="rgb(10,28,40)" stroke-width="1" opacity="1" d="M 68.5 83 L 69 86 L 65 85.5 L 68 85 L 68.5 83 Z "></path><path fill="rgb(10,28,40)" stroke="rgb(10,28,40)" stroke-width="1" opacity="1" d="M 53.5 85 L 60 85.5 L 57.5 91 L 54 90.5 L 58 90 Q 60.3 84 53.5 86 L 53.5 85 Z "></path><path fill="rgb(10,28,40)" stroke="rgb(10,28,40)" stroke-width="1" opacity="1" d="M 78.5 85 L 79 91.5 L 78 91.5 L 78.5 85 Z "></path><path fill="rgb(10,28,40)" stroke="rgb(10,28,40)" stroke-width="1" opacity="1" d="M 73.5 94 L 76 95.5 L 72.5 96 L 73.5 94 Z "></path><path fill="rgb(10,28,40)" stroke="rgb(10,28,40)" stroke-width="1" opacity="1" d="M 53.5 96 L 54 99.5 L 53 99.5 L 53.5 96 Z "></path><path fill="rgb(10,28,40)" stroke="rgb(10,28,40)" stroke-width="1" opacity="1" d="M 58 96 L 64 96 L 64 99.5 L 63 99.5 Q 64.1 95.3 60 97 Q 61.3 101.1 58 100 L 58 96 Z "></path><path fill="rgb(97,29,22)" stroke="rgb(97,29,22)" stroke-width="1" opacity="1" d="M 32.5 20 L 35 20.5 L 32.5 21 L 32.5 20 Z "></path><path fill="rgb(97,29,22)" stroke="rgb(97,29,22)" stroke-width="1" opacity="1" d="M 63.5 20 L 64.5 22 L 63.5 20 Z "></path><path fill="rgb(97,29,22)" stroke="rgb(97,29,22)" stroke-width="1" opacity="1" d="M 26.5 32 L 27 57.5 L 26 57.5 L 26.5 32 Z "></path><path fill="rgb(97,29,22)" stroke="rgb(97,29,22)" stroke-width="1" opacity="1" d="M 43 32 L 63.5 32 L 64 37 L 58.5 38 L 57.5 37 L 48 37 L 48 42 L 44.5 42 Q 42 41 43 36.5 L 43 34.5 L 43 32 Z M 46 36 L 45 41 L 46 41 L 46 36 Z "></path><path fill="rgb(97,29,22)" stroke="rgb(97,29,22)" stroke-width="1" opacity="1" d="M 42.5 43 L 43 47.5 L 42 47.5 L 42.5 43 Z "></path><path fill="rgb(97,29,22)" stroke="rgb(97,29,22)" stroke-width="1" opacity="1" d="M 80.5 48 L 81 52.5 L 80 52.5 L 80.5 48 Z "></path><path fill="rgb(97,29,22)" stroke="rgb(97,29,22)" stroke-width="1" opacity="1" d="M 32.5 59 L 36 60.5 Q 37.3 65.3 34 64 L 32.5 59 Z "></path><path fill="rgb(97,29,22)" stroke="rgb(97,29,22)" stroke-width="1" opacity="1" d="M 42 59 L 44 59.5 L 42.5 64 L 42 59 Z "></path><path fill="rgb(97,29,22)" stroke="rgb(97,29,22)" stroke-width="1" opacity="1" d="M 72.5 59 L 76 59.5 L 74 60 L 75 65.5 L 74 65.5 L 74 64 L 70 64 L 70 60 L 72.5 59 Z "></path><path fill="rgb(97,29,22)" stroke="rgb(97,29,22)" stroke-width="1" opacity="1" d="M 37.5 64 L 38 67.5 L 37 70 L 33 71.5 L 32.5 77 L 32 69 L 27 70 L 26.5 100 L 26 70.5 L 31.5 66 L 32 69 Q 35.8 70 37 67.5 L 37.5 64 Z "></path><path fill="rgb(97,29,22)" stroke="rgb(97,29,22)" stroke-width="1" opacity="1" d="M 75 67 Q 78 66 77 69 L 79.5 69 L 79.5 70 L 75 69 L 75 67 Z "></path><path fill="rgb(97,29,22)" stroke="rgb(97,29,22)" stroke-width="1" opacity="1" d="M 80.5 76 L 81 95.5 L 80 95.5 L 80.5 76 Z "></path><path fill="rgb(97,29,22)" stroke="rgb(97,29,22)" stroke-width="1" opacity="1" d="M 52.5 77 L 53 85 L 51 84.5 L 52.5 77 Z "></path><path fill="rgb(97,29,22)" stroke="rgb(97,29,22)" stroke-width="1" opacity="1" d="M 36.5 80 L 37 83.5 L 36 83.5 L 36.5 80 Z "></path><path fill="rgb(97,29,22)" stroke="rgb(97,29,22)" stroke-width="1" opacity="1" d="M 32.5 81 L 33 83.5 L 32 83.5 L 32.5 81 Z "></path><path fill="rgb(97,29,22)" stroke="rgb(97,29,22)" stroke-width="1" opacity="1" d="M 32.5 85 L 33 87.5 L 32 87.5 L 32.5 85 Z "></path><path fill="rgb(97,29,22)" stroke="rgb(97,29,22)" stroke-width="1" opacity="1" d="M 37.5 85 L 41 86.5 L 39.5 87 L 37.5 85 Z "></path><path fill="rgb(97,29,22)" stroke="rgb(97,29,22)" stroke-width="1" opacity="1" d="M 44.5 86 Q 49.3 84.3 48 88.5 L 47 88.5 Q 47.8 85.9 44.5 87 L 44.5 86 Z "></path><path fill="rgb(97,29,22)" stroke="rgb(97,29,22)" stroke-width="1" opacity="1" d="M 32.5 89 L 37.5 90 L 40 92.5 L 38.5 100 L 38 92.5 L 36.5 91 Q 30.2 92.7 32.5 89 Z "></path><path fill="rgb(97,29,22)" stroke="rgb(97,29,22)" stroke-width="1" opacity="1" d="M 49.5 91 Q 55.4 88.9 54 93.5 Q 51.2 95.5 52 100 Q 47.9 101.7 49 97.5 L 48.5 96 L 52 94.5 Q 53.3 90.8 49.5 92 L 49.5 91 Z "></path><path fill="rgb(97,29,22)" stroke="rgb(97,29,22)" stroke-width="1" opacity="1" d="M 43.5 95 L 47 95.5 L 43.5 96 L 43.5 95 Z "></path><path fill="rgb(97,29,22)" stroke="rgb(97,29,22)" stroke-width="1" opacity="1" d="M 41.5 96 L 42 99.5 L 41 99.5 L 41.5 96 Z "></path><path fill="rgb(97,29,22)" stroke="rgb(97,29,22)" stroke-width="1" opacity="1" d="M 69.5 97 L 70 99.5 L 69 99.5 L 69.5 97 Z "></path></svg>